PathFileType	4	(X/Y/Z)	C:\Users\86182\Documents\cortex\Trimmed_M3_H9.trc
DataRate	CameraRate	NumFrames	NumMarkers	Units	OrigDataRate	OrigDataStartFrame	OrigNumFrames
100.00	100.00	       154	2	mm	100.00	361	       901
Frame#	Time	gripper			box			
		X1	Y1	Z1	X2	Y2	Z2	

361	3.600	268.08481	173.38232	292.74023	268.28574	171.02878	156.17393	
362	3.610	268.09036	173.37425	292.73730	268.27298	171.01352	156.17607	
363	3.620	268.10117	173.36337	292.73212	268.26941	170.99155	156.17258	
364	3.630	268.11560	173.35106	292.72559	268.27390	170.96396	156.16440	
365	3.640	268.13156	173.33873	292.71872	268.28439	170.93343	156.15308	
366	3.650	268.14688	173.32765	292.71243	268.29807	170.90405	156.14072	
367	3.660	268.15973	173.31892	292.70752	268.31201	170.88016	156.12947	
368	3.670	268.16888	173.31326	292.70450	268.32422	170.86452	156.12073	
369	3.680	268.17401	173.31085	292.70355	268.33380	170.85751	156.11496	
370	3.690	268.17581	173.31126	292.70447	268.34070	170.85753	156.11214	
371	3.700	268.17535	173.31384	292.70682	268.34479	170.86234	156.11209	
372	3.710	268.17371	173.31789	292.71002	268.34586	170.87030	156.11452	
373	3.720	268.17148	173.32272	292.71341	268.34369	170.88054	156.11888	
374	3.730	268.16895	173.32758	292.71600	268.33859	170.89200	156.12416	
375	3.740	268.16592	173.33147	292.71649	268.33142	170.90211	156.12862	
376	3.750	268.16153	173.33319	292.71335	268.32327	170.90660	156.12997	
377	3.760	268.15430	173.33130	292.70468	268.31430	170.90161	156.12616	
378	3.770	268.14215	173.32405	292.68872	268.30356	170.88554	156.11577	
379	3.780	268.12292	173.30977	292.66406	268.28931	170.85953	156.09819	
380	3.790	268.09476	173.28749	292.63046	268.27036	170.82686	156.07382	
381	3.800	268.05692	173.25795	292.58884	268.24680	170.79224	156.04451	
382	3.810	268.01089	173.22388	292.54114	268.22055	170.76051	156.01347	
383	3.820	267.96036	173.18912	292.49011	268.19507	170.73531	155.98398	
384	3.830	267.91022	173.15735	292.43921	268.17340	170.71803	155.95836	
385	3.840	267.86563	173.13097	292.39270	268.15692	170.70804	155.93777	
386	3.850	267.83118	173.11070	292.35461	268.14557	170.70352	155.92290	
387	3.860	267.80960	173.09563	292.32739	268.13867	170.70230	155.91405	
388	3.870	267.80148	173.08403	292.31177	268.13547	170.70245	155.91127	
389	3.880	267.80536	173.07445	292.30664	268.13516	170.70264	155.91396	
390	3.890	267.81750	173.06627	292.30951	268.13681	170.70227	155.92065	
391	3.900	267.83279	173.05966	292.31696	268.13937	170.70143	155.92903	
392	3.910	267.84589	173.05502	292.32541	268.14200	170.70059	155.93663	
393	3.920	267.85278	173.05258	292.33197	268.14423	170.70029	155.94153	
394	3.930	267.85150	173.05232	292.33508	268.14587	170.70085	155.94281	
395	3.940	267.84244	173.05414	292.33472	268.14697	170.70235	155.94051	
396	3.950	267.82767	173.05792	292.33206	268.14755	170.70453	155.93550	
397	3.960	267.81061	173.06340	292.32855	268.14780	170.70697	155.92928	
398	3.970	267.79544	173.06989	292.32535	268.14780	170.70915	155.92337	
399	3.980	267.78568	173.07628	292.32300	268.14774	170.71077	155.91885	
400	3.990	267.78220	173.08157	292.32196	268.14767	170.71164	155.91629	
401	4.000	267.78375	173.08514	292.32224	268.14761	170.71178	155.91573	
402	4.010	267.78827	173.08687	292.32367	268.14761	170.71126	155.91692	
403	4.020	267.79401	173.08699	292.32593	268.14761	170.71027	155.91940	
404	4.030	267.79956	173.08600	292.32843	268.14761	170.70905	155.92255	
405	4.040	267.80389	173.08444	292.33057	268.14761	170.70789	155.92555	
406	4.050	267.80637	173.08276	292.33185	268.14761	170.70708	155.92769	
407	4.060	267.80682	173.08119	292.33215	268.14761	170.70674	155.92859	
408	4.070	267.80560	173.07973	292.33154	268.14761	170.70680	155.92844	
409	4.080	267.80347	173.07825	292.33038	268.14764	170.70702	155.92789	
410	4.090	267.80151	173.07661	292.32904	268.14764	170.70708	155.92775	
411	4.100	267.80115	173.07475	292.32773	268.14764	170.70677	155.92854	
412	4.110	267.80350	173.07266	292.32648	268.14761	170.70615	155.93021	
413	4.120	267.80841	173.07042	292.32532	268.14758	170.70540	155.93217	
414	4.130	267.81451	173.06827	292.32413	268.14758	170.70483	155.93362	
415	4.140	267.82001	173.06664	292.32294	268.14758	170.70470	155.93401	
416	4.150	267.82318	173.06619	292.32190	268.14758	170.70502	155.93315	
417	4.160	267.82300	173.06761	292.32111	268.14761	170.70578	155.93117	
418	4.170	267.81918	173.07109	292.32056	268.14761	170.70688	155.92828	
419	4.180	267.81268	173.07610	292.31982	268.14764	170.70816	155.92493	
420	4.190	267.80469	173.08163	292.31876	268.14767	170.70940	155.92172	
421	4.200	267.79651	173.08667	292.31738	268.14771	170.71033	155.91928	
422	4.210	267.78928	173.09041	292.31622	268.14771	170.71077	155.91812	
423	4.220	267.78409	173.09230	292.31589	268.14771	170.71059	155.91861	
424	4.230	267.78189	173.09219	292.31683	268.14771	170.70973	155.92082	
425	4.240	267.78302	173.09041	292.31900	268.14764	170.70831	155.92455	
426	4.250	267.78714	173.08752	292.32172	268.14761	170.70657	155.92911	
427	4.260	267.79333	173.08417	292.32410	268.14758	170.70491	155.93343	
428	4.270	267.80051	173.08080	292.32556	268.14755	170.70380	155.93636	
429	4.280	267.80759	173.07774	292.32568	268.14755	170.70352	155.93707	
430	4.290	267.81354	173.07538	292.32465	268.14755	170.70410	155.93553	
431	4.300	267.81744	173.07411	292.32294	268.14758	170.70531	155.93242	
432	4.310	267.81873	173.07433	292.32129	268.14761	170.70677	155.92857	
433	4.320	267.81738	173.07591	292.32025	268.14764	170.70824	155.92471	
434	4.330	267.81433	173.07825	292.32007	268.14767	170.70952	155.92136	
435	4.340	267.81061	173.08054	292.32074	268.14771	170.71040	155.91904	
436	4.350	267.80701	173.08231	292.32202	268.14771	170.71075	155.91811	
437	4.360	267.80389	173.08334	292.32379	268.14771	170.71056	155.91867	
438	4.370	267.80130	173.08371	292.32584	268.14771	170.70988	155.92041	
439	4.380	267.79922	173.08366	292.32779	268.14767	170.70898	155.92278	
440	4.390	267.79773	173.08351	292.32932	268.14764	170.70819	155.92485	
441	4.400	267.79691	173.08350	292.33020	268.14764	170.70778	155.92590	
442	4.410	267.79666	173.08368	292.33044	268.14764	170.70786	155.92572	
443	4.420	267.79681	173.08392	292.33011	268.14764	170.70831	155.92450	
444	4.430	267.79724	173.08401	292.32947	268.14767	170.70903	155.92262	
445	4.440	267.79825	173.08368	292.32874	268.14771	170.70982	155.92056	
446	4.450	267.80035	173.08272	292.32794	268.14771	170.71049	155.91881	
447	4.460	267.80392	173.08107	292.32709	268.14774	170.71091	155.91774	
448	4.470	267.80890	173.07874	292.32614	268.14774	170.71097	155.91759	
449	4.480	267.81473	173.07587	292.32507	268.14771	170.71068	155.91833	
450	4.490	267.82053	173.07286	292.32391	268.14771	170.71014	155.91975	
451	4.500	267.82520	173.07030	292.32294	268.14767	170.70953	155.92136	
452	4.510	267.82761	173.06874	292.32233	268.14767	170.70908	155.92256	
453	4.520	267.82715	173.06856	292.32227	268.14767	170.70888	155.92305	
454	4.530	267.82358	173.06975	292.32272	268.14767	170.70894	155.92290	
455	4.540	267.81741	173.07195	292.32361	268.14767	170.70917	155.92229	
456	4.550	267.80969	173.07457	292.32471	268.14767	170.70950	155.92140	
457	4.560	267.80170	173.07706	292.32596	268.14771	170.70998	155.92018	
458	4.570	267.79477	173.07910	292.32727	268.14771	170.71054	155.91870	
459	4.580	267.79022	173.08060	292.32855	268.14771	170.71111	155.91721	
460	4.590	267.78873	173.08171	292.32953	268.14774	170.71158	155.91595	
461	4.600	267.78992	173.08260	292.33008	268.14774	170.71191	155.91508	
462	4.610	267.79263	173.08339	292.33008	268.14774	170.71211	155.91455	
463	4.620	267.79568	173.08411	292.32971	268.14774	170.71223	155.91423	
464	4.630	267.79828	173.08472	292.32910	268.14777	170.71231	155.91403	
465	4.640	267.80023	173.08516	292.32840	268.14777	170.71237	155.91389	
466	4.650	267.80164	173.08528	292.32782	268.14777	170.71236	155.91394	
467	4.660	267.80283	173.08502	292.32745	268.14774	170.71220	155.91431	
468	4.670	267.80405	173.08438	292.32727	268.14774	170.71191	155.91508	
469	4.680	267.80539	173.08342	292.32715	268.14774	170.71146	155.91629	
470	4.690	267.80688	173.08223	292.32703	268.14771	170.71089	155.91776	
471	4.700	267.80829	173.08089	292.32697	268.14771	170.71030	155.91931	
472	4.710	267.80936	173.07961	292.32690	268.14771	170.70976	155.92073	
473	4.720	267.80981	173.07861	292.32684	268.14767	170.70937	155.92177	
474	4.730	267.80963	173.07811	292.32663	268.14767	170.70921	155.92218	
475	4.740	267.80881	173.07828	292.32617	268.14771	170.70937	155.92177	
476	4.750	267.80722	173.07935	292.32547	268.14771	170.70981	155.92062	
477	4.760	267.80499	173.08125	292.32465	268.14771	170.71039	155.91910	
478	4.770	267.80252	173.08362	292.32379	268.14774	170.71100	155.91751	
479	4.780	267.80045	173.08583	292.32312	268.14774	170.71152	155.91612	
480	4.790	267.79919	173.08737	292.32291	268.14774	170.71193	155.91507	
481	4.800	267.79901	173.08801	292.32333	268.14774	170.71217	155.91441	
482	4.810	267.79965	173.08780	292.32434	268.14774	170.71223	155.91426	
483	4.820	267.80087	173.08694	292.32571	268.14774	170.71208	155.91467	
484	4.830	267.80215	173.08582	292.32712	268.14774	170.71170	155.91565	
485	4.840	267.80328	173.08464	292.32831	268.14774	170.71115	155.91707	
486	4.850	267.80405	173.08357	292.32913	268.14771	170.71057	155.91859	
487	4.860	267.80447	173.08264	292.32956	268.14771	170.71011	155.91980	
488	4.870	267.80472	173.08189	292.32959	268.14771	170.70990	155.92033	
489	4.880	267.80490	173.08136	292.32922	268.14771	170.70995	155.92024	
490	4.890	267.80515	173.08115	292.32849	268.14771	170.71014	155.91974	
491	4.900	267.80530	173.08136	292.32745	268.14771	170.71040	155.91904	
492	4.910	267.80508	173.08208	292.32626	268.14771	170.71068	155.91833	
493	4.920	267.80423	173.08330	292.32501	268.14774	170.71092	155.91772	
494	4.930	267.80276	173.08487	292.32379	268.14774	170.71115	155.91710	
495	4.940	267.80099	173.08658	292.32263	268.14774	170.71141	155.91641	
496	4.950	267.79929	173.08812	292.32169	268.14774	170.71169	155.91568	
497	4.960	267.79788	173.08925	292.32104	268.14774	170.71190	155.91515	
498	4.970	267.79678	173.08987	292.32074	268.14774	170.71198	155.91495	
499	4.980	267.79593	173.09001	292.32074	268.14774	170.71190	155.91515	
500	4.990	267.79514	173.08980	292.32104	268.14774	170.71167	155.91574	
501	5.000	267.79437	173.08931	292.32159	268.14774	170.71127	155.91678	
502	5.010	267.79373	173.08862	292.32233	268.14771	170.71072	155.91821	
503	5.020	267.79358	173.08778	292.32336	268.14771	170.71010	155.91985	
504	5.030	267.79416	173.08685	292.32452	268.14771	170.70953	155.92133	
505	5.040	267.79556	173.08589	292.32568	268.14767	170.70920	155.92221	
506	5.050	267.79745	173.08492	292.32654	268.14767	170.70921	155.92215	
507	5.060	267.79956	173.08394	292.32700	268.14771	170.70959	155.92116	
508	5.070	267.80176	173.08286	292.32700	268.14771	170.71024	155.91949	
509	5.080	267.80392	173.08163	292.32657	268.14771	170.71095	155.91762	
510	5.090	267.80603	173.08037	292.32574	268.14774	170.71161	155.91591	
511	5.100	267.80789	173.07925	292.32458	268.14774	170.71207	155.91469	
512	5.110	267.80923	173.07860	292.32336	268.14774	170.71227	155.91417	
513	5.120	267.80966	173.07860	292.32242	268.14774	170.71219	155.91437	
514	5.130	267.80905	173.07927	292.32205	268.14774	170.71187	155.91524	
